# xmcd
#
# Track frame offsets:
#	150
#	11910
#	24341
#	37309
#	53433
#	67540
#	81700
#	90879
#	113753
#	126898
#	139038
#	154985
#
# Disc length: 2227 seconds
#
# Revision: 0
# Processed by: cddbd v1.5.2PL0 Copyright (c) Steve Scherf et al.
# Submitted via: EasyCDDAExtractor 10.5.1.1
#
DISCID=9408b10c
DTITLE=Mac Wiseman - Bluegrass Tradition
DYEAR=2008
DGENRE=Country
TTITLE0=I Still Write Your Name in the Sand
TTITLE1=Wabash Canonball
TTITLE2=I Wonder How the Old Folks Are at Home
TTITLE3=Eighteen Wheels A-Humming Home Sweet Home
TTITLE4=Put My Little Shoes Away
TTITLE5=I Haven't Seen Mama in Years
TTITLE6=Jimmy Brown
TTITLE7=Barbara Allen
TTITLE8=The Prisoner's Song
TTITLE9=The Waltz You Saved for Me
TTITLE10=Where Is My Wandering Boy Tonight
TTITLE11=I Heard My Mother Call My Name in Prayer
EXTD=
EXTT0=
EXTT1=
EXTT2=
EXTT3=
EXTT4=
EXTT5=
EXTT6=
EXTT7=
EXTT8=
EXTT9=
EXTT10=
EXTT11=
PLAYORDER=
